<svg xmlns="http://www.w3.org/2000/svg" width="1024" height="1024" viewBox="0 0 1024 1024">
  
  <defs>
    <radialGradient id="bgGrad" cx="50%" cy="50%" r="70%">
      <stop offset="0%"  stop-color="hsl(280,90%,55%)"/>
      <stop offset="40%" stop-color="hsl(200,90%,35%)"/>
      <stop offset="80%" stop-color="hsl(320,90%,25%)"/>
      <stop offset="100%" stop-color="hsl(260,90%,10%)"/>
    </radialGradient>
    <filter id="glow" x="-50%" y="-50%" width="200%" height="200%">
      <feGaussianBlur stdDeviation="4" result="coloredBlur"/>
      <feMerge>
        <feMergeNode in="coloredBlur"/>
        <feMergeNode in="SourceGraphic"/>
      </feMerge>
    </filter>
  </defs>

  <rect width="100%" height="100%" fill="url(#bgGrad)"/>
  <g>
    <line x1="512.00" y1="512.00" x2="652.00" y2="512.00" stroke="hsla(182, 100%, 60%, 0.2)" stroke-width="16" stroke-linecap="round" filter="url(#glow)"/><line x1="512.00" y1="512.00" x2="652.00" y2="512.00" stroke="hsla(202, 100%, 60%, 0.45)" stroke-width="10" stroke-linecap="round" filter="url(#glow)"/><line x1="512.00" y1="512.00" x2="652.00" y2="512.00" stroke="hsla(222, 100%, 60%, 0.85)" stroke-width="4" stroke-linecap="round" filter="url(#glow)"/><line x1="512.00" y1="512.00" x2="582.00" y2="633.24" stroke="hsla(242, 100%, 60%, 0.2)" stroke-width="16" stroke-linecap="round" filter="url(#glow)"/><line x1="512.00" y1="512.00" x2="582.00" y2="633.24" stroke="hsla(262, 100%, 60%, 0.45)" stroke-width="10" stroke-linecap="round" filter="url(#glow)"/><line x1="512.00" y1="512.00" x2="582.00" y2="633.24" stroke="hsla(282, 100%, 60%, 0.85)" stroke-width="4" stroke-linecap="round" filter="url(#glow)"/><line x1="512.00" y1="512.00" x2="442.00" y2="633.24" stroke="hsla(302, 100%, 60%, 0.2)" stroke-width="16" stroke-linecap="round" filter="url(#glow)"/><line x1="512.00" y1="512.00" x2="442.00" y2="633.24" stroke="hsla(322, 100%, 60%, 0.45)" stroke-width="10" stroke-linecap="round" filter="url(#glow)"/><line x1="512.00" y1="512.00" x2="442.00" y2="633.24" stroke="hsla(342, 100%, 60%, 0.85)" stroke-width="4" stroke-linecap="round" filter="url(#glow)"/><line x1="512.00" y1="512.00" x2="372.00" y2="512.00" stroke="hsla(2, 100%, 60%, 0.2)" stroke-width="16" stroke-linecap="round" filter="url(#glow)"/><line x1="512.00" y1="512.00" x2="372.00" y2="512.00" stroke="hsla(22, 100%, 60%, 0.45)" stroke-width="10" stroke-linecap="round" filter="url(#glow)"/><line x1="512.00" y1="512.00" x2="372.00" y2="512.00" stroke="hsla(42, 100%, 60%, 0.85)" stroke-width="4" stroke-linecap="round" filter="url(#glow)"/><line x1="512.00" y1="512.00" x2="442.00" y2="390.76" stroke="hsla(62, 100%, 60%, 0.2)" stroke-width="16" stroke-linecap="round" filter="url(#glow)"/><line x1="512.00" y1="512.00" x2="442.00" y2="390.76" stroke="hsla(82, 100%, 60%, 0.45)" stroke-width="10" stroke-linecap="round" filter="url(#glow)"/><line x1="512.00" y1="512.00" x2="442.00" y2="390.76" stroke="hsla(102, 100%, 60%, 0.85)" stroke-width="4" stroke-linecap="round" filter="url(#glow)"/><line x1="512.00" y1="512.00" x2="582.00" y2="390.76" stroke="hsla(122, 100%, 60%, 0.2)" stroke-width="16" stroke-linecap="round" filter="url(#glow)"/><line x1="512.00" y1="512.00" x2="582.00" y2="390.76" stroke="hsla(142, 100%, 60%, 0.45)" stroke-width="10" stroke-linecap="round" filter="url(#glow)"/><line x1="512.00" y1="512.00" x2="582.00" y2="390.76" stroke="hsla(162, 100%, 60%, 0.85)" stroke-width="4" stroke-linecap="round" filter="url(#glow)"/><line x1="512.00" y1="512.00" x2="792.00" y2="512.00" stroke="hsla(205, 100%, 60%, 0.2)" stroke-width="16" stroke-linecap="round" filter="url(#glow)"/><line x1="512.00" y1="512.00" x2="792.00" y2="512.00" stroke="hsla(225, 100%, 60%, 0.45)" stroke-width="10" stroke-linecap="round" filter="url(#glow)"/><line x1="512.00" y1="512.00" x2="792.00" y2="512.00" stroke="hsla(245, 100%, 60%, 0.85)" stroke-width="4" stroke-linecap="round" filter="url(#glow)"/><line x1="512.00" y1="512.00" x2="652.00" y2="754.49" stroke="hsla(265, 100%, 60%, 0.2)" stroke-width="16" stroke-linecap="round" filter="url(#glow)"/><line x1="512.00" y1="512.00" x2="652.00" y2="754.49" stroke="hsla(285, 100%, 60%, 0.45)" stroke-width="10" stroke-linecap="round" filter="url(#glow)"/><line x1="512.00" y1="512.00" x2="652.00" y2="754.49" stroke="hsla(305, 100%, 60%, 0.85)" stroke-width="4" stroke-linecap="round" filter="url(#glow)"/><line x1="512.00" y1="512.00" x2="372.00" y2="754.49" stroke="hsla(325, 100%, 60%, 0.2)" stroke-width="16" stroke-linecap="round" filter="url(#glow)"/><line x1="512.00" y1="512.00" x2="372.00" y2="754.49" stroke="hsla(345, 100%, 60%, 0.45)" stroke-width="10" stroke-linecap="round" filter="url(#glow)"/><line x1="512.00" y1="512.00" x2="372.00" y2="754.49" stroke="hsla(365, 100%, 60%, 0.85)" stroke-width="4" stroke-linecap="round" filter="url(#glow)"/><line x1="512.00" y1="512.00" x2="232.00" y2="512.00" stroke="hsla(25, 100%, 60%, 0.2)" stroke-width="16" stroke-linecap="round" filter="url(#glow)"/><line x1="512.00" y1="512.00" x2="232.00" y2="512.00" stroke="hsla(45, 100%, 60%, 0.45)" stroke-width="10" stroke-linecap="round" filter="url(#glow)"/><line x1="512.00" y1="512.00" x2="232.00" y2="512.00" stroke="hsla(65, 100%, 60%, 0.85)" stroke-width="4" stroke-linecap="round" filter="url(#glow)"/><line x1="512.00" y1="512.00" x2="372.00" y2="269.51" stroke="hsla(84, 100%, 60%, 0.2)" stroke-width="16" stroke-linecap="round" filter="url(#glow)"/><line x1="512.00" y1="512.00" x2="372.00" y2="269.51" stroke="hsla(104, 100%, 60%, 0.45)" stroke-width="10" stroke-linecap="round" filter="url(#glow)"/><line x1="512.00" y1="512.00" x2="372.00" y2="269.51" stroke="hsla(124, 100%, 60%, 0.85)" stroke-width="4" stroke-linecap="round" filter="url(#glow)"/><line x1="512.00" y1="512.00" x2="652.00" y2="269.51" stroke="hsla(145, 100%, 60%, 0.2)" stroke-width="16" stroke-linecap="round" filter="url(#glow)"/><line x1="512.00" y1="512.00" x2="652.00" y2="269.51" stroke="hsla(165, 100%, 60%, 0.45)" stroke-width="10" stroke-linecap="round" filter="url(#glow)"/><line x1="512.00" y1="512.00" x2="652.00" y2="269.51" stroke="hsla(185, 100%, 60%, 0.85)" stroke-width="4" stroke-linecap="round" filter="url(#glow)"/><line x1="652.00" y1="512.00" x2="582.00" y2="633.24" stroke="hsla(302, 100%, 60%, 0.2)" stroke-width="16" stroke-linecap="round" filter="url(#glow)"/><line x1="652.00" y1="512.00" x2="582.00" y2="633.24" stroke="hsla(322, 100%, 60%, 0.45)" stroke-width="10" stroke-linecap="round" filter="url(#glow)"/><line x1="652.00" y1="512.00" x2="582.00" y2="633.24" stroke="hsla(342, 100%, 60%, 0.85)" stroke-width="4" stroke-linecap="round" filter="url(#glow)"/><line x1="652.00" y1="512.00" x2="442.00" y2="633.24" stroke="hsla(-12, 100%, 60%, 0.2)" stroke-width="16" stroke-linecap="round" filter="url(#glow)"/><line x1="652.00" y1="512.00" x2="442.00" y2="633.24" stroke="hsla(8, 100%, 60%, 0.45)" stroke-width="10" stroke-linecap="round" filter="url(#glow)"/><line x1="652.00" y1="512.00" x2="442.00" y2="633.24" stroke="hsla(28, 100%, 60%, 0.85)" stroke-width="4" stroke-linecap="round" filter="url(#glow)"/><line x1="652.00" y1="512.00" x2="372.00" y2="512.00" stroke="hsla(25, 100%, 60%, 0.2)" stroke-width="16" stroke-linecap="round" filter="url(#glow)"/><line x1="652.00" y1="512.00" x2="372.00" y2="512.00" stroke="hsla(45, 100%, 60%, 0.45)" stroke-width="10" stroke-linecap="round" filter="url(#glow)"/><line x1="652.00" y1="512.00" x2="372.00" y2="512.00" stroke="hsla(65, 100%, 60%, 0.85)" stroke-width="4" stroke-linecap="round" filter="url(#glow)"/><line x1="652.00" y1="512.00" x2="442.00" y2="390.76" stroke="hsla(48, 100%, 60%, 0.2)" stroke-width="16" stroke-linecap="round" filter="url(#glow)"/><line x1="652.00" y1="512.00" x2="442.00" y2="390.76" stroke="hsla(68, 100%, 60%, 0.45)" stroke-width="10" stroke-linecap="round" filter="url(#glow)"/><line x1="652.00" y1="512.00" x2="442.00" y2="390.76" stroke="hsla(88, 100%, 60%, 0.85)" stroke-width="4" stroke-linecap="round" filter="url(#glow)"/><line x1="652.00" y1="512.00" x2="582.00" y2="390.76" stroke="hsla(62, 100%, 60%, 0.2)" stroke-width="16" stroke-linecap="round" filter="url(#glow)"/><line x1="652.00" y1="512.00" x2="582.00" y2="390.76" stroke="hsla(82, 100%, 60%, 0.45)" stroke-width="10" stroke-linecap="round" filter="url(#glow)"/><line x1="652.00" y1="512.00" x2="582.00" y2="390.76" stroke="hsla(102, 100%, 60%, 0.85)" stroke-width="4" stroke-linecap="round" filter="url(#glow)"/><line x1="652.00" y1="512.00" x2="792.00" y2="512.00" stroke="hsla(182, 100%, 60%, 0.2)" stroke-width="16" stroke-linecap="round" filter="url(#glow)"/><line x1="652.00" y1="512.00" x2="792.00" y2="512.00" stroke="hsla(202, 100%, 60%, 0.45)" stroke-width="10" stroke-linecap="round" filter="url(#glow)"/><line x1="652.00" y1="512.00" x2="792.00" y2="512.00" stroke="hsla(222, 100%, 60%, 0.85)" stroke-width="4" stroke-linecap="round" filter="url(#glow)"/><line x1="652.00" y1="512.00" x2="652.00" y2="754.49" stroke="hsla(288, 100%, 60%, 0.2)" stroke-width="16" stroke-linecap="round" filter="url(#glow)"/><line x1="652.00" y1="512.00" x2="652.00" y2="754.49" stroke="hsla(308, 100%, 60%, 0.45)" stroke-width="10" stroke-linecap="round" filter="url(#glow)"/><line x1="652.00" y1="512.00" x2="652.00" y2="754.49" stroke="hsla(328, 100%, 60%, 0.85)" stroke-width="4" stroke-linecap="round" filter="url(#glow)"/><line x1="652.00" y1="512.00" x2="372.00" y2="754.49" stroke="hsla(-2, 100%, 60%, 0.2)" stroke-width="16" stroke-linecap="round" filter="url(#glow)"/><line x1="652.00" y1="512.00" x2="372.00" y2="754.49" stroke="hsla(18, 100%, 60%, 0.45)" stroke-width="10" stroke-linecap="round" filter="url(#glow)"/><line x1="652.00" y1="512.00" x2="372.00" y2="754.49" stroke="hsla(38, 100%, 60%, 0.85)" stroke-width="4" stroke-linecap="round" filter="url(#glow)"/><line x1="652.00" y1="512.00" x2="232.00" y2="512.00" stroke="hsla(47, 100%, 60%, 0.2)" stroke-width="16" stroke-linecap="round" filter="url(#glow)"/><line x1="652.00" y1="512.00" x2="232.00" y2="512.00" stroke="hsla(67, 100%, 60%, 0.45)" stroke-width="10" stroke-linecap="round" filter="url(#glow)"/><line x1="652.00" y1="512.00" x2="232.00" y2="512.00" stroke="hsla(87, 100%, 60%, 0.85)" stroke-width="4" stroke-linecap="round" filter="url(#glow)"/><line x1="652.00" y1="512.00" x2="372.00" y2="269.51" stroke="hsla(80, 100%, 60%, 0.2)" stroke-width="16" stroke-linecap="round" filter="url(#glow)"/><line x1="652.00" y1="512.00" x2="372.00" y2="269.51" stroke="hsla(100, 100%, 60%, 0.45)" stroke-width="10" stroke-linecap="round" filter="url(#glow)"/><line x1="652.00" y1="512.00" x2="372.00" y2="269.51" stroke="hsla(120, 100%, 60%, 0.85)" stroke-width="4" stroke-linecap="round" filter="url(#glow)"/><line x1="652.00" y1="512.00" x2="652.00" y2="269.51" stroke="hsla(108, 100%, 60%, 0.2)" stroke-width="16" stroke-linecap="round" filter="url(#glow)"/><line x1="652.00" y1="512.00" x2="652.00" y2="269.51" stroke="hsla(128, 100%, 60%, 0.45)" stroke-width="10" stroke-linecap="round" filter="url(#glow)"/><line x1="652.00" y1="512.00" x2="652.00" y2="269.51" stroke="hsla(148, 100%, 60%, 0.85)" stroke-width="4" stroke-linecap="round" filter="url(#glow)"/><line x1="582.00" y1="633.24" x2="442.00" y2="633.24" stroke="hsla(2, 100%, 60%, 0.2)" stroke-width="16" stroke-linecap="round" filter="url(#glow)"/><line x1="582.00" y1="633.24" x2="442.00" y2="633.24" stroke="hsla(22, 100%, 60%, 0.45)" stroke-width="10" stroke-linecap="round" filter="url(#glow)"/><line x1="582.00" y1="633.24" x2="442.00" y2="633.24" stroke="hsla(42, 100%, 60%, 0.85)" stroke-width="4" stroke-linecap="round" filter="url(#glow)"/><line x1="582.00" y1="633.24" x2="372.00" y2="512.00" stroke="hsla(48, 100%, 60%, 0.2)" stroke-width="16" stroke-linecap="round" filter="url(#glow)"/><line x1="582.00" y1="633.24" x2="372.00" y2="512.00" stroke="hsla(68, 100%, 60%, 0.45)" stroke-width="10" stroke-linecap="round" filter="url(#glow)"/><line x1="582.00" y1="633.24" x2="372.00" y2="512.00" stroke="hsla(88, 100%, 60%, 0.85)" stroke-width="4" stroke-linecap="round" filter="url(#glow)"/><line x1="582.00" y1="633.24" x2="442.00" y2="390.76" stroke="hsla(84, 100%, 60%, 0.2)" stroke-width="16" stroke-linecap="round" filter="url(#glow)"/><line x1="582.00" y1="633.24" x2="442.00" y2="390.76" stroke="hsla(104, 100%, 60%, 0.45)" stroke-width="10" stroke-linecap="round" filter="url(#glow)"/><line x1="582.00" y1="633.24" x2="442.00" y2="390.76" stroke="hsla(124, 100%, 60%, 0.85)" stroke-width="4" stroke-linecap="round" filter="url(#glow)"/><line x1="582.00" y1="633.24" x2="582.00" y2="390.76" stroke="hsla(108, 100%, 60%, 0.2)" stroke-width="16" stroke-linecap="round" filter="url(#glow)"/><line x1="582.00" y1="633.24" x2="582.00" y2="390.76" stroke="hsla(128, 100%, 60%, 0.45)" stroke-width="10" stroke-linecap="round" filter="url(#glow)"/><line x1="582.00" y1="633.24" x2="582.00" y2="390.76" stroke="hsla(148, 100%, 60%, 0.85)" stroke-width="4" stroke-linecap="round" filter="url(#glow)"/><line x1="582.00" y1="633.24" x2="792.00" y2="512.00" stroke="hsla(168, 100%, 60%, 0.2)" stroke-width="16" stroke-linecap="round" filter="url(#glow)"/><line x1="582.00" y1="633.24" x2="792.00" y2="512.00" stroke="hsla(188, 100%, 60%, 0.45)" stroke-width="10" stroke-linecap="round" filter="url(#glow)"/><line x1="582.00" y1="633.24" x2="792.00" y2="512.00" stroke="hsla(208, 100%, 60%, 0.85)" stroke-width="4" stroke-linecap="round" filter="url(#glow)"/><line x1="582.00" y1="633.24" x2="652.00" y2="754.49" stroke="hsla(242, 100%, 60%, 0.2)" stroke-width="16" stroke-linecap="round" filter="url(#glow)"/><line x1="582.00" y1="633.24" x2="652.00" y2="754.49" stroke="hsla(262, 100%, 60%, 0.45)" stroke-width="10" stroke-linecap="round" filter="url(#glow)"/><line x1="582.00" y1="633.24" x2="652.00" y2="754.49" stroke="hsla(282, 100%, 60%, 0.85)" stroke-width="4" stroke-linecap="round" filter="url(#glow)"/><line x1="582.00" y1="633.24" x2="372.00" y2="754.49" stroke="hsla(-12, 100%, 60%, 0.2)" stroke-width="16" stroke-linecap="round" filter="url(#glow)"/><line x1="582.00" y1="633.24" x2="372.00" y2="754.49" stroke="hsla(8, 100%, 60%, 0.45)" stroke-width="10" stroke-linecap="round" filter="url(#glow)"/><line x1="582.00" y1="633.24" x2="372.00" y2="754.49" stroke="hsla(28, 100%, 60%, 0.85)" stroke-width="4" stroke-linecap="round" filter="url(#glow)"/><line x1="582.00" y1="633.24" x2="232.00" y2="512.00" stroke="hsla(58, 100%, 60%, 0.2)" stroke-width="16" stroke-linecap="round" filter="url(#glow)"/><line x1="582.00" y1="633.24" x2="232.00" y2="512.00" stroke="hsla(78, 100%, 60%, 0.45)" stroke-width="10" stroke-linecap="round" filter="url(#glow)"/><line x1="582.00" y1="633.24" x2="232.00" y2="512.00" stroke="hsla(98, 100%, 60%, 0.85)" stroke-width="4" stroke-linecap="round" filter="url(#glow)"/><line x1="582.00" y1="633.24" x2="372.00" y2="269.51" stroke="hsla(107, 100%, 60%, 0.2)" stroke-width="16" stroke-linecap="round" filter="url(#glow)"/><line x1="582.00" y1="633.24" x2="372.00" y2="269.51" stroke="hsla(127, 100%, 60%, 0.45)" stroke-width="10" stroke-linecap="round" filter="url(#glow)"/><line x1="582.00" y1="633.24" x2="372.00" y2="269.51" stroke="hsla(147, 100%, 60%, 0.85)" stroke-width="4" stroke-linecap="round" filter="url(#glow)"/><line x1="582.00" y1="633.24" x2="652.00" y2="269.51" stroke="hsla(140, 100%, 60%, 0.2)" stroke-width="16" stroke-linecap="round" filter="url(#glow)"/><line x1="582.00" y1="633.24" x2="652.00" y2="269.51" stroke="hsla(160, 100%, 60%, 0.45)" stroke-width="10" stroke-linecap="round" filter="url(#glow)"/><line x1="582.00" y1="633.24" x2="652.00" y2="269.51" stroke="hsla(180, 100%, 60%, 0.85)" stroke-width="4" stroke-linecap="round" filter="url(#glow)"/><line x1="442.00" y1="633.24" x2="372.00" y2="512.00" stroke="hsla(62, 100%, 60%, 0.2)" stroke-width="16" stroke-linecap="round" filter="url(#glow)"/><line x1="442.00" y1="633.24" x2="372.00" y2="512.00" stroke="hsla(82, 100%, 60%, 0.45)" stroke-width="10" stroke-linecap="round" filter="url(#glow)"/><line x1="442.00" y1="633.24" x2="372.00" y2="512.00" stroke="hsla(102, 100%, 60%, 0.85)" stroke-width="4" stroke-linecap="round" filter="url(#glow)"/><line x1="442.00" y1="633.24" x2="442.00" y2="390.76" stroke="hsla(108, 100%, 60%, 0.2)" stroke-width="16" stroke-linecap="round" filter="url(#glow)"/><line x1="442.00" y1="633.24" x2="442.00" y2="390.76" stroke="hsla(128, 100%, 60%, 0.45)" stroke-width="10" stroke-linecap="round" filter="url(#glow)"/><line x1="442.00" y1="633.24" x2="442.00" y2="390.76" stroke="hsla(148, 100%, 60%, 0.85)" stroke-width="4" stroke-linecap="round" filter="url(#glow)"/><line x1="442.00" y1="633.24" x2="582.00" y2="390.76" stroke="hsla(145, 100%, 60%, 0.2)" stroke-width="16" stroke-linecap="round" filter="url(#glow)"/><line x1="442.00" y1="633.24" x2="582.00" y2="390.76" stroke="hsla(165, 100%, 60%, 0.45)" stroke-width="10" stroke-linecap="round" filter="url(#glow)"/><line x1="442.00" y1="633.24" x2="582.00" y2="390.76" stroke="hsla(185, 100%, 60%, 0.85)" stroke-width="4" stroke-linecap="round" filter="url(#glow)"/><line x1="442.00" y1="633.24" x2="792.00" y2="512.00" stroke="hsla(200, 100%, 60%, 0.2)" stroke-width="16" stroke-linecap="round" filter="url(#glow)"/><line x1="442.00" y1="633.24" x2="792.00" y2="512.00" stroke="hsla(220, 100%, 60%, 0.45)" stroke-width="10" stroke-linecap="round" filter="url(#glow)"/><line x1="442.00" y1="633.24" x2="792.00" y2="512.00" stroke="hsla(240, 100%, 60%, 0.85)" stroke-width="4" stroke-linecap="round" filter="url(#glow)"/><line x1="442.00" y1="633.24" x2="652.00" y2="754.49" stroke="hsla(228, 100%, 60%, 0.2)" stroke-width="16" stroke-linecap="round" filter="url(#glow)"/><line x1="442.00" y1="633.24" x2="652.00" y2="754.49" stroke="hsla(248, 100%, 60%, 0.45)" stroke-width="10" stroke-linecap="round" filter="url(#glow)"/><line x1="442.00" y1="633.24" x2="652.00" y2="754.49" stroke="hsla(268, 100%, 60%, 0.85)" stroke-width="4" stroke-linecap="round" filter="url(#glow)"/><line x1="442.00" y1="633.24" x2="372.00" y2="754.49" stroke="hsla(302, 100%, 60%, 0.2)" stroke-width="16" stroke-linecap="round" filter="url(#glow)"/><line x1="442.00" y1="633.24" x2="372.00" y2="754.49" stroke="hsla(322, 100%, 60%, 0.45)" stroke-width="10" stroke-linecap="round" filter="url(#glow)"/><line x1="442.00" y1="633.24" x2="372.00" y2="754.49" stroke="hsla(342, 100%, 60%, 0.85)" stroke-width="4" stroke-linecap="round" filter="url(#glow)"/><line x1="442.00" y1="633.24" x2="232.00" y2="512.00" stroke="hsla(48, 100%, 60%, 0.2)" stroke-width="16" stroke-linecap="round" filter="url(#glow)"/><line x1="442.00" y1="633.24" x2="232.00" y2="512.00" stroke="hsla(68, 100%, 60%, 0.45)" stroke-width="10" stroke-linecap="round" filter="url(#glow)"/><line x1="442.00" y1="633.24" x2="232.00" y2="512.00" stroke="hsla(88, 100%, 60%, 0.85)" stroke-width="4" stroke-linecap="round" filter="url(#glow)"/><line x1="442.00" y1="633.24" x2="372.00" y2="269.51" stroke="hsla(118, 100%, 60%, 0.2)" stroke-width="16" stroke-linecap="round" filter="url(#glow)"/><line x1="442.00" y1="633.24" x2="372.00" y2="269.51" stroke="hsla(138, 100%, 60%, 0.45)" stroke-width="10" stroke-linecap="round" filter="url(#glow)"/><line x1="442.00" y1="633.24" x2="372.00" y2="269.51" stroke="hsla(158, 100%, 60%, 0.85)" stroke-width="4" stroke-linecap="round" filter="url(#glow)"/><line x1="442.00" y1="633.24" x2="652.00" y2="269.51" stroke="hsla(167, 100%, 60%, 0.2)" stroke-width="16" stroke-linecap="round" filter="url(#glow)"/><line x1="442.00" y1="633.24" x2="652.00" y2="269.51" stroke="hsla(187, 100%, 60%, 0.45)" stroke-width="10" stroke-linecap="round" filter="url(#glow)"/><line x1="442.00" y1="633.24" x2="652.00" y2="269.51" stroke="hsla(207, 100%, 60%, 0.85)" stroke-width="4" stroke-linecap="round" filter="url(#glow)"/><line x1="372.00" y1="512.00" x2="442.00" y2="390.76" stroke="hsla(122, 100%, 60%, 0.2)" stroke-width="16" stroke-linecap="round" filter="url(#glow)"/><line x1="372.00" y1="512.00" x2="442.00" y2="390.76" stroke="hsla(142, 100%, 60%, 0.45)" stroke-width="10" stroke-linecap="round" filter="url(#glow)"/><line x1="372.00" y1="512.00" x2="442.00" y2="390.76" stroke="hsla(162, 100%, 60%, 0.85)" stroke-width="4" stroke-linecap="round" filter="url(#glow)"/><line x1="372.00" y1="512.00" x2="582.00" y2="390.76" stroke="hsla(168, 100%, 60%, 0.2)" stroke-width="16" stroke-linecap="round" filter="url(#glow)"/><line x1="372.00" y1="512.00" x2="582.00" y2="390.76" stroke="hsla(188, 100%, 60%, 0.45)" stroke-width="10" stroke-linecap="round" filter="url(#glow)"/><line x1="372.00" y1="512.00" x2="582.00" y2="390.76" stroke="hsla(208, 100%, 60%, 0.85)" stroke-width="4" stroke-linecap="round" filter="url(#glow)"/><line x1="372.00" y1="512.00" x2="792.00" y2="512.00" stroke="hsla(227, 100%, 60%, 0.2)" stroke-width="16" stroke-linecap="round" filter="url(#glow)"/><line x1="372.00" y1="512.00" x2="792.00" y2="512.00" stroke="hsla(247, 100%, 60%, 0.45)" stroke-width="10" stroke-linecap="round" filter="url(#glow)"/><line x1="372.00" y1="512.00" x2="792.00" y2="512.00" stroke="hsla(267, 100%, 60%, 0.85)" stroke-width="4" stroke-linecap="round" filter="url(#glow)"/><line x1="372.00" y1="512.00" x2="652.00" y2="754.49" stroke="hsla(260, 100%, 60%, 0.2)" stroke-width="16" stroke-linecap="round" filter="url(#glow)"/><line x1="372.00" y1="512.00" x2="652.00" y2="754.49" stroke="hsla(280, 100%, 60%, 0.45)" stroke-width="10" stroke-linecap="round" filter="url(#glow)"/><line x1="372.00" y1="512.00" x2="652.00" y2="754.49" stroke="hsla(300, 100%, 60%, 0.85)" stroke-width="4" stroke-linecap="round" filter="url(#glow)"/><line x1="372.00" y1="512.00" x2="372.00" y2="754.49" stroke="hsla(288, 100%, 60%, 0.2)" stroke-width="16" stroke-linecap="round" filter="url(#glow)"/><line x1="372.00" y1="512.00" x2="372.00" y2="754.49" stroke="hsla(308, 100%, 60%, 0.45)" stroke-width="10" stroke-linecap="round" filter="url(#glow)"/><line x1="372.00" y1="512.00" x2="372.00" y2="754.49" stroke="hsla(328, 100%, 60%, 0.85)" stroke-width="4" stroke-linecap="round" filter="url(#glow)"/><line x1="372.00" y1="512.00" x2="232.00" y2="512.00" stroke="hsla(2, 100%, 60%, 0.2)" stroke-width="16" stroke-linecap="round" filter="url(#glow)"/><line x1="372.00" y1="512.00" x2="232.00" y2="512.00" stroke="hsla(22, 100%, 60%, 0.45)" stroke-width="10" stroke-linecap="round" filter="url(#glow)"/><line x1="372.00" y1="512.00" x2="232.00" y2="512.00" stroke="hsla(42, 100%, 60%, 0.85)" stroke-width="4" stroke-linecap="round" filter="url(#glow)"/><line x1="372.00" y1="512.00" x2="372.00" y2="269.51" stroke="hsla(108, 100%, 60%, 0.2)" stroke-width="16" stroke-linecap="round" filter="url(#glow)"/><line x1="372.00" y1="512.00" x2="372.00" y2="269.51" stroke="hsla(128, 100%, 60%, 0.45)" stroke-width="10" stroke-linecap="round" filter="url(#glow)"/><line x1="372.00" y1="512.00" x2="372.00" y2="269.51" stroke="hsla(148, 100%, 60%, 0.85)" stroke-width="4" stroke-linecap="round" filter="url(#glow)"/><line x1="372.00" y1="512.00" x2="652.00" y2="269.51" stroke="hsla(178, 100%, 60%, 0.2)" stroke-width="16" stroke-linecap="round" filter="url(#glow)"/><line x1="372.00" y1="512.00" x2="652.00" y2="269.51" stroke="hsla(198, 100%, 60%, 0.45)" stroke-width="10" stroke-linecap="round" filter="url(#glow)"/><line x1="372.00" y1="512.00" x2="652.00" y2="269.51" stroke="hsla(218, 100%, 60%, 0.85)" stroke-width="4" stroke-linecap="round" filter="url(#glow)"/><line x1="442.00" y1="390.76" x2="582.00" y2="390.76" stroke="hsla(182, 100%, 60%, 0.2)" stroke-width="16" stroke-linecap="round" filter="url(#glow)"/><line x1="442.00" y1="390.76" x2="582.00" y2="390.76" stroke="hsla(202, 100%, 60%, 0.45)" stroke-width="10" stroke-linecap="round" filter="url(#glow)"/><line x1="442.00" y1="390.76" x2="582.00" y2="390.76" stroke="hsla(222, 100%, 60%, 0.85)" stroke-width="4" stroke-linecap="round" filter="url(#glow)"/><line x1="442.00" y1="390.76" x2="792.00" y2="512.00" stroke="hsla(238, 100%, 60%, 0.2)" stroke-width="16" stroke-linecap="round" filter="url(#glow)"/><line x1="442.00" y1="390.76" x2="792.00" y2="512.00" stroke="hsla(258, 100%, 60%, 0.45)" stroke-width="10" stroke-linecap="round" filter="url(#glow)"/><line x1="442.00" y1="390.76" x2="792.00" y2="512.00" stroke="hsla(278, 100%, 60%, 0.85)" stroke-width="4" stroke-linecap="round" filter="url(#glow)"/><line x1="442.00" y1="390.76" x2="652.00" y2="754.49" stroke="hsla(287, 100%, 60%, 0.2)" stroke-width="16" stroke-linecap="round" filter="url(#glow)"/><line x1="442.00" y1="390.76" x2="652.00" y2="754.49" stroke="hsla(307, 100%, 60%, 0.45)" stroke-width="10" stroke-linecap="round" filter="url(#glow)"/><line x1="442.00" y1="390.76" x2="652.00" y2="754.49" stroke="hsla(327, 100%, 60%, 0.85)" stroke-width="4" stroke-linecap="round" filter="url(#glow)"/><line x1="442.00" y1="390.76" x2="372.00" y2="754.49" stroke="hsla(320, 100%, 60%, 0.2)" stroke-width="16" stroke-linecap="round" filter="url(#glow)"/><line x1="442.00" y1="390.76" x2="372.00" y2="754.49" stroke="hsla(340, 100%, 60%, 0.45)" stroke-width="10" stroke-linecap="round" filter="url(#glow)"/><line x1="442.00" y1="390.76" x2="372.00" y2="754.49" stroke="hsla(360, 100%, 60%, 0.85)" stroke-width="4" stroke-linecap="round" filter="url(#glow)"/><line x1="442.00" y1="390.76" x2="232.00" y2="512.00" stroke="hsla(-12, 100%, 60%, 0.2)" stroke-width="16" stroke-linecap="round" filter="url(#glow)"/><line x1="442.00" y1="390.76" x2="232.00" y2="512.00" stroke="hsla(8, 100%, 60%, 0.45)" stroke-width="10" stroke-linecap="round" filter="url(#glow)"/><line x1="442.00" y1="390.76" x2="232.00" y2="512.00" stroke="hsla(28, 100%, 60%, 0.85)" stroke-width="4" stroke-linecap="round" filter="url(#glow)"/><line x1="442.00" y1="390.76" x2="372.00" y2="269.51" stroke="hsla(62, 100%, 60%, 0.2)" stroke-width="16" stroke-linecap="round" filter="url(#glow)"/><line x1="442.00" y1="390.76" x2="372.00" y2="269.51" stroke="hsla(82, 100%, 60%, 0.45)" stroke-width="10" stroke-linecap="round" filter="url(#glow)"/><line x1="442.00" y1="390.76" x2="372.00" y2="269.51" stroke="hsla(102, 100%, 60%, 0.85)" stroke-width="4" stroke-linecap="round" filter="url(#glow)"/><line x1="442.00" y1="390.76" x2="652.00" y2="269.51" stroke="hsla(168, 100%, 60%, 0.2)" stroke-width="16" stroke-linecap="round" filter="url(#glow)"/><line x1="442.00" y1="390.76" x2="652.00" y2="269.51" stroke="hsla(188, 100%, 60%, 0.45)" stroke-width="10" stroke-linecap="round" filter="url(#glow)"/><line x1="442.00" y1="390.76" x2="652.00" y2="269.51" stroke="hsla(208, 100%, 60%, 0.85)" stroke-width="4" stroke-linecap="round" filter="url(#glow)"/><line x1="582.00" y1="390.76" x2="792.00" y2="512.00" stroke="hsla(228, 100%, 60%, 0.2)" stroke-width="16" stroke-linecap="round" filter="url(#glow)"/><line x1="582.00" y1="390.76" x2="792.00" y2="512.00" stroke="hsla(248, 100%, 60%, 0.45)" stroke-width="10" stroke-linecap="round" filter="url(#glow)"/><line x1="582.00" y1="390.76" x2="792.00" y2="512.00" stroke="hsla(268, 100%, 60%, 0.85)" stroke-width="4" stroke-linecap="round" filter="url(#glow)"/><line x1="582.00" y1="390.76" x2="652.00" y2="754.49" stroke="hsla(298, 100%, 60%, 0.2)" stroke-width="16" stroke-linecap="round" filter="url(#glow)"/><line x1="582.00" y1="390.76" x2="652.00" y2="754.49" stroke="hsla(318, 100%, 60%, 0.45)" stroke-width="10" stroke-linecap="round" filter="url(#glow)"/><line x1="582.00" y1="390.76" x2="652.00" y2="754.49" stroke="hsla(338, 100%, 60%, 0.85)" stroke-width="4" stroke-linecap="round" filter="url(#glow)"/><line x1="582.00" y1="390.76" x2="372.00" y2="754.49" stroke="hsla(-13, 100%, 60%, 0.2)" stroke-width="16" stroke-linecap="round" filter="url(#glow)"/><line x1="582.00" y1="390.76" x2="372.00" y2="754.49" stroke="hsla(7, 100%, 60%, 0.45)" stroke-width="10" stroke-linecap="round" filter="url(#glow)"/><line x1="582.00" y1="390.76" x2="372.00" y2="754.49" stroke="hsla(27, 100%, 60%, 0.85)" stroke-width="4" stroke-linecap="round" filter="url(#glow)"/><line x1="582.00" y1="390.76" x2="232.00" y2="512.00" stroke="hsla(20, 100%, 60%, 0.2)" stroke-width="16" stroke-linecap="round" filter="url(#glow)"/><line x1="582.00" y1="390.76" x2="232.00" y2="512.00" stroke="hsla(40, 100%, 60%, 0.45)" stroke-width="10" stroke-linecap="round" filter="url(#glow)"/><line x1="582.00" y1="390.76" x2="232.00" y2="512.00" stroke="hsla(60, 100%, 60%, 0.85)" stroke-width="4" stroke-linecap="round" filter="url(#glow)"/><line x1="582.00" y1="390.76" x2="372.00" y2="269.51" stroke="hsla(48, 100%, 60%, 0.2)" stroke-width="16" stroke-linecap="round" filter="url(#glow)"/><line x1="582.00" y1="390.76" x2="372.00" y2="269.51" stroke="hsla(68, 100%, 60%, 0.45)" stroke-width="10" stroke-linecap="round" filter="url(#glow)"/><line x1="582.00" y1="390.76" x2="372.00" y2="269.51" stroke="hsla(88, 100%, 60%, 0.85)" stroke-width="4" stroke-linecap="round" filter="url(#glow)"/><line x1="582.00" y1="390.76" x2="652.00" y2="269.51" stroke="hsla(122, 100%, 60%, 0.2)" stroke-width="16" stroke-linecap="round" filter="url(#glow)"/><line x1="582.00" y1="390.76" x2="652.00" y2="269.51" stroke="hsla(142, 100%, 60%, 0.45)" stroke-width="10" stroke-linecap="round" filter="url(#glow)"/><line x1="582.00" y1="390.76" x2="652.00" y2="269.51" stroke="hsla(162, 100%, 60%, 0.85)" stroke-width="4" stroke-linecap="round" filter="url(#glow)"/><line x1="792.00" y1="512.00" x2="652.00" y2="754.49" stroke="hsla(325, 100%, 60%, 0.2)" stroke-width="16" stroke-linecap="round" filter="url(#glow)"/><line x1="792.00" y1="512.00" x2="652.00" y2="754.49" stroke="hsla(345, 100%, 60%, 0.45)" stroke-width="10" stroke-linecap="round" filter="url(#glow)"/><line x1="792.00" y1="512.00" x2="652.00" y2="754.49" stroke="hsla(365, 100%, 60%, 0.85)" stroke-width="4" stroke-linecap="round" filter="url(#glow)"/><line x1="792.00" y1="512.00" x2="372.00" y2="754.49" stroke="hsla(27, 100%, 60%, 0.2)" stroke-width="16" stroke-linecap="round" filter="url(#glow)"/><line x1="792.00" y1="512.00" x2="372.00" y2="754.49" stroke="hsla(47, 100%, 60%, 0.45)" stroke-width="10" stroke-linecap="round" filter="url(#glow)"/><line x1="792.00" y1="512.00" x2="372.00" y2="754.49" stroke="hsla(67, 100%, 60%, 0.85)" stroke-width="4" stroke-linecap="round" filter="url(#glow)"/><line x1="792.00" y1="512.00" x2="232.00" y2="512.00" stroke="hsla(70, 100%, 60%, 0.2)" stroke-width="16" stroke-linecap="round" filter="url(#glow)"/><line x1="792.00" y1="512.00" x2="232.00" y2="512.00" stroke="hsla(90, 100%, 60%, 0.45)" stroke-width="10" stroke-linecap="round" filter="url(#glow)"/><line x1="792.00" y1="512.00" x2="232.00" y2="512.00" stroke="hsla(110, 100%, 60%, 0.85)" stroke-width="4" stroke-linecap="round" filter="url(#glow)"/><line x1="792.00" y1="512.00" x2="372.00" y2="269.51" stroke="hsla(87, 100%, 60%, 0.2)" stroke-width="16" stroke-linecap="round" filter="url(#glow)"/><line x1="792.00" y1="512.00" x2="372.00" y2="269.51" stroke="hsla(107, 100%, 60%, 0.45)" stroke-width="10" stroke-linecap="round" filter="url(#glow)"/><line x1="792.00" y1="512.00" x2="372.00" y2="269.51" stroke="hsla(127, 100%, 60%, 0.85)" stroke-width="4" stroke-linecap="round" filter="url(#glow)"/><line x1="792.00" y1="512.00" x2="652.00" y2="269.51" stroke="hsla(84, 100%, 60%, 0.2)" stroke-width="16" stroke-linecap="round" filter="url(#glow)"/><line x1="792.00" y1="512.00" x2="652.00" y2="269.51" stroke="hsla(104, 100%, 60%, 0.45)" stroke-width="10" stroke-linecap="round" filter="url(#glow)"/><line x1="792.00" y1="512.00" x2="652.00" y2="269.51" stroke="hsla(124, 100%, 60%, 0.85)" stroke-width="4" stroke-linecap="round" filter="url(#glow)"/><line x1="652.00" y1="754.49" x2="372.00" y2="754.49" stroke="hsla(25, 100%, 60%, 0.2)" stroke-width="16" stroke-linecap="round" filter="url(#glow)"/><line x1="652.00" y1="754.49" x2="372.00" y2="754.49" stroke="hsla(45, 100%, 60%, 0.45)" stroke-width="10" stroke-linecap="round" filter="url(#glow)"/><line x1="652.00" y1="754.49" x2="372.00" y2="754.49" stroke="hsla(65, 100%, 60%, 0.85)" stroke-width="4" stroke-linecap="round" filter="url(#glow)"/><line x1="652.00" y1="754.49" x2="232.00" y2="512.00" stroke="hsla(87, 100%, 60%, 0.2)" stroke-width="16" stroke-linecap="round" filter="url(#glow)"/><line x1="652.00" y1="754.49" x2="232.00" y2="512.00" stroke="hsla(107, 100%, 60%, 0.45)" stroke-width="10" stroke-linecap="round" filter="url(#glow)"/><line x1="652.00" y1="754.49" x2="232.00" y2="512.00" stroke="hsla(127, 100%, 60%, 0.85)" stroke-width="4" stroke-linecap="round" filter="url(#glow)"/><line x1="652.00" y1="754.49" x2="372.00" y2="269.51" stroke="hsla(129, 100%, 60%, 0.2)" stroke-width="16" stroke-linecap="round" filter="url(#glow)"/><line x1="652.00" y1="754.49" x2="372.00" y2="269.51" stroke="hsla(149, 100%, 60%, 0.45)" stroke-width="10" stroke-linecap="round" filter="url(#glow)"/><line x1="652.00" y1="754.49" x2="372.00" y2="269.51" stroke="hsla(169, 100%, 60%, 0.85)" stroke-width="4" stroke-linecap="round" filter="url(#glow)"/><line x1="652.00" y1="754.49" x2="652.00" y2="269.51" stroke="hsla(147, 100%, 60%, 0.2)" stroke-width="16" stroke-linecap="round" filter="url(#glow)"/><line x1="652.00" y1="754.49" x2="652.00" y2="269.51" stroke="hsla(167, 100%, 60%, 0.45)" stroke-width="10" stroke-linecap="round" filter="url(#glow)"/><line x1="652.00" y1="754.49" x2="652.00" y2="269.51" stroke="hsla(187, 100%, 60%, 0.85)" stroke-width="4" stroke-linecap="round" filter="url(#glow)"/><line x1="372.00" y1="754.49" x2="232.00" y2="512.00" stroke="hsla(84, 100%, 60%, 0.2)" stroke-width="16" stroke-linecap="round" filter="url(#glow)"/><line x1="372.00" y1="754.49" x2="232.00" y2="512.00" stroke="hsla(104, 100%, 60%, 0.45)" stroke-width="10" stroke-linecap="round" filter="url(#glow)"/><line x1="372.00" y1="754.49" x2="232.00" y2="512.00" stroke="hsla(124, 100%, 60%, 0.85)" stroke-width="4" stroke-linecap="round" filter="url(#glow)"/><line x1="372.00" y1="754.49" x2="372.00" y2="269.51" stroke="hsla(147, 100%, 60%, 0.2)" stroke-width="16" stroke-linecap="round" filter="url(#glow)"/><line x1="372.00" y1="754.49" x2="372.00" y2="269.51" stroke="hsla(167, 100%, 60%, 0.45)" stroke-width="10" stroke-linecap="round" filter="url(#glow)"/><line x1="372.00" y1="754.49" x2="372.00" y2="269.51" stroke="hsla(187, 100%, 60%, 0.85)" stroke-width="4" stroke-linecap="round" filter="url(#glow)"/><line x1="372.00" y1="754.49" x2="652.00" y2="269.51" stroke="hsla(189, 100%, 60%, 0.2)" stroke-width="16" stroke-linecap="round" filter="url(#glow)"/><line x1="372.00" y1="754.49" x2="652.00" y2="269.51" stroke="hsla(209, 100%, 60%, 0.45)" stroke-width="10" stroke-linecap="round" filter="url(#glow)"/><line x1="372.00" y1="754.49" x2="652.00" y2="269.51" stroke="hsla(229, 100%, 60%, 0.85)" stroke-width="4" stroke-linecap="round" filter="url(#glow)"/><line x1="232.00" y1="512.00" x2="372.00" y2="269.51" stroke="hsla(144, 100%, 60%, 0.2)" stroke-width="16" stroke-linecap="round" filter="url(#glow)"/><line x1="232.00" y1="512.00" x2="372.00" y2="269.51" stroke="hsla(164, 100%, 60%, 0.45)" stroke-width="10" stroke-linecap="round" filter="url(#glow)"/><line x1="232.00" y1="512.00" x2="372.00" y2="269.51" stroke="hsla(184, 100%, 60%, 0.85)" stroke-width="4" stroke-linecap="round" filter="url(#glow)"/><line x1="232.00" y1="512.00" x2="652.00" y2="269.51" stroke="hsla(207, 100%, 60%, 0.2)" stroke-width="16" stroke-linecap="round" filter="url(#glow)"/><line x1="232.00" y1="512.00" x2="652.00" y2="269.51" stroke="hsla(227, 100%, 60%, 0.45)" stroke-width="10" stroke-linecap="round" filter="url(#glow)"/><line x1="232.00" y1="512.00" x2="652.00" y2="269.51" stroke="hsla(247, 100%, 60%, 0.85)" stroke-width="4" stroke-linecap="round" filter="url(#glow)"/><line x1="372.00" y1="269.51" x2="652.00" y2="269.51" stroke="hsla(205, 100%, 60%, 0.2)" stroke-width="16" stroke-linecap="round" filter="url(#glow)"/><line x1="372.00" y1="269.51" x2="652.00" y2="269.51" stroke="hsla(225, 100%, 60%, 0.45)" stroke-width="10" stroke-linecap="round" filter="url(#glow)"/><line x1="372.00" y1="269.51" x2="652.00" y2="269.51" stroke="hsla(245, 100%, 60%, 0.85)" stroke-width="4" stroke-linecap="round" filter="url(#glow)"/>
    <circle cx="512.00" cy="512.00" r="140" fill="none" stroke="hsla(0, 100%, 60%, 0.25)" stroke-width="18" filter="url(#glow)"/><circle cx="512.00" cy="512.00" r="140" fill="none" stroke="hsla(48, 100%, 60%, 0.55)" stroke-width="10" filter="url(#glow)"/><circle cx="512.00" cy="512.00" r="140" fill="none" stroke="hsla(68, 100%, 60%, 0.9)" stroke-width="4" filter="url(#glow)"/><circle cx="512.00" cy="512.00" r="4" fill="white"/><circle cx="652.00" cy="512.00" r="140" fill="none" stroke="hsla(36, 100%, 60%, 0.25)" stroke-width="18" filter="url(#glow)"/><circle cx="652.00" cy="512.00" r="140" fill="none" stroke="hsla(84, 100%, 60%, 0.55)" stroke-width="10" filter="url(#glow)"/><circle cx="652.00" cy="512.00" r="140" fill="none" stroke="hsla(104, 100%, 60%, 0.9)" stroke-width="4" filter="url(#glow)"/><circle cx="652.00" cy="512.00" r="4" fill="white"/><circle cx="582.00" cy="633.24" r="140" fill="none" stroke="hsla(72, 100%, 60%, 0.25)" stroke-width="18" filter="url(#glow)"/><circle cx="582.00" cy="633.24" r="140" fill="none" stroke="hsla(120, 100%, 60%, 0.55)" stroke-width="10" filter="url(#glow)"/><circle cx="582.00" cy="633.24" r="140" fill="none" stroke="hsla(140, 100%, 60%, 0.9)" stroke-width="4" filter="url(#glow)"/><circle cx="582.00" cy="633.24" r="4" fill="white"/><circle cx="442.00" cy="633.24" r="140" fill="none" stroke="hsla(108, 100%, 60%, 0.25)" stroke-width="18" filter="url(#glow)"/><circle cx="442.00" cy="633.24" r="140" fill="none" stroke="hsla(156, 100%, 60%, 0.55)" stroke-width="10" filter="url(#glow)"/><circle cx="442.00" cy="633.24" r="140" fill="none" stroke="hsla(176, 100%, 60%, 0.9)" stroke-width="4" filter="url(#glow)"/><circle cx="442.00" cy="633.24" r="4" fill="white"/><circle cx="372.00" cy="512.00" r="140" fill="none" stroke="hsla(144, 100%, 60%, 0.25)" stroke-width="18" filter="url(#glow)"/><circle cx="372.00" cy="512.00" r="140" fill="none" stroke="hsla(192, 100%, 60%, 0.55)" stroke-width="10" filter="url(#glow)"/><circle cx="372.00" cy="512.00" r="140" fill="none" stroke="hsla(212, 100%, 60%, 0.9)" stroke-width="4" filter="url(#glow)"/><circle cx="372.00" cy="512.00" r="4" fill="white"/><circle cx="442.00" cy="390.76" r="140" fill="none" stroke="hsla(180, 100%, 60%, 0.25)" stroke-width="18" filter="url(#glow)"/><circle cx="442.00" cy="390.76" r="140" fill="none" stroke="hsla(228, 100%, 60%, 0.55)" stroke-width="10" filter="url(#glow)"/><circle cx="442.00" cy="390.76" r="140" fill="none" stroke="hsla(248, 100%, 60%, 0.9)" stroke-width="4" filter="url(#glow)"/><circle cx="442.00" cy="390.76" r="4" fill="white"/><circle cx="582.00" cy="390.76" r="140" fill="none" stroke="hsla(216, 100%, 60%, 0.25)" stroke-width="18" filter="url(#glow)"/><circle cx="582.00" cy="390.76" r="140" fill="none" stroke="hsla(264, 100%, 60%, 0.55)" stroke-width="10" filter="url(#glow)"/><circle cx="582.00" cy="390.76" r="140" fill="none" stroke="hsla(284, 100%, 60%, 0.9)" stroke-width="4" filter="url(#glow)"/><circle cx="582.00" cy="390.76" r="4" fill="white"/><circle cx="792.00" cy="512.00" r="140" fill="none" stroke="hsla(252, 100%, 60%, 0.25)" stroke-width="18" filter="url(#glow)"/><circle cx="792.00" cy="512.00" r="140" fill="none" stroke="hsla(300, 100%, 60%, 0.55)" stroke-width="10" filter="url(#glow)"/><circle cx="792.00" cy="512.00" r="140" fill="none" stroke="hsla(320, 100%, 60%, 0.9)" stroke-width="4" filter="url(#glow)"/><circle cx="792.00" cy="512.00" r="4" fill="white"/><circle cx="652.00" cy="754.49" r="140" fill="none" stroke="hsla(288, 100%, 60%, 0.25)" stroke-width="18" filter="url(#glow)"/><circle cx="652.00" cy="754.49" r="140" fill="none" stroke="hsla(336, 100%, 60%, 0.55)" stroke-width="10" filter="url(#glow)"/><circle cx="652.00" cy="754.49" r="140" fill="none" stroke="hsla(356, 100%, 60%, 0.9)" stroke-width="4" filter="url(#glow)"/><circle cx="652.00" cy="754.49" r="4" fill="white"/><circle cx="372.00" cy="754.49" r="140" fill="none" stroke="hsla(324, 100%, 60%, 0.25)" stroke-width="18" filter="url(#glow)"/><circle cx="372.00" cy="754.49" r="140" fill="none" stroke="hsla(372, 100%, 60%, 0.55)" stroke-width="10" filter="url(#glow)"/><circle cx="372.00" cy="754.49" r="140" fill="none" stroke="hsla(392, 100%, 60%, 0.9)" stroke-width="4" filter="url(#glow)"/><circle cx="372.00" cy="754.49" r="4" fill="white"/><circle cx="232.00" cy="512.00" r="140" fill="none" stroke="hsla(0, 100%, 60%, 0.25)" stroke-width="18" filter="url(#glow)"/><circle cx="232.00" cy="512.00" r="140" fill="none" stroke="hsla(48, 100%, 60%, 0.55)" stroke-width="10" filter="url(#glow)"/><circle cx="232.00" cy="512.00" r="140" fill="none" stroke="hsla(68, 100%, 60%, 0.9)" stroke-width="4" filter="url(#glow)"/><circle cx="232.00" cy="512.00" r="4" fill="white"/><circle cx="372.00" cy="269.51" r="140" fill="none" stroke="hsla(36, 100%, 60%, 0.25)" stroke-width="18" filter="url(#glow)"/><circle cx="372.00" cy="269.51" r="140" fill="none" stroke="hsla(84, 100%, 60%, 0.55)" stroke-width="10" filter="url(#glow)"/><circle cx="372.00" cy="269.51" r="140" fill="none" stroke="hsla(104, 100%, 60%, 0.9)" stroke-width="4" filter="url(#glow)"/><circle cx="372.00" cy="269.51" r="4" fill="white"/><circle cx="652.00" cy="269.51" r="140" fill="none" stroke="hsla(72, 100%, 60%, 0.25)" stroke-width="18" filter="url(#glow)"/><circle cx="652.00" cy="269.51" r="140" fill="none" stroke="hsla(120, 100%, 60%, 0.55)" stroke-width="10" filter="url(#glow)"/><circle cx="652.00" cy="269.51" r="140" fill="none" stroke="hsla(140, 100%, 60%, 0.9)" stroke-width="4" filter="url(#glow)"/><circle cx="652.00" cy="269.51" r="4" fill="white"/>
  </g>
</svg>
